<mxfile host="app.diagrams.net" agent="Mozilla/5.0 (Macintosh; Intel Mac OS X 10_15_7) AppleWebKit/537.36 (KHTML, like Gecko) Chrome/128.0.0.0 Safari/537.36" version="24.7.12">
  <diagram name="Page-1" id="XFgyv9gbzzpCvOAqc9OW">
    <mxGraphModel dx="1161" dy="786" grid="1" gridSize="10" guides="1" tooltips="1" connect="1" arrows="1" fold="1" page="1" pageScale="1" pageWidth="850" pageHeight="1100" math="0" shadow="0">
      <root>
        <mxCell id="0" />
        <mxCell id="1" parent="0" />
        <mxCell id="uOfySxA4SrgA6R2zytQ_-1" value="" style="verticalLabelPosition=bottom;sketch=0;html=1;fillColor=#282828;strokeColor=none;verticalAlign=top;pointerEvents=1;align=center;shape=mxgraph.cisco_safe.people_places_things_icons.icon9;fontSize=11;" vertex="1" parent="1">
          <mxGeometry x="367.5" y="50" width="50" height="45" as="geometry" />
        </mxCell>
        <mxCell id="uOfySxA4SrgA6R2zytQ_-9" value="" style="edgeStyle=orthogonalEdgeStyle;rounded=0;orthogonalLoop=1;jettySize=auto;html=1;startArrow=classicThin;startFill=1;endArrow=classicThin;endFill=1;flowAnimation=1;fontSize=11;" edge="1" parent="1" source="uOfySxA4SrgA6R2zytQ_-8" target="uOfySxA4SrgA6R2zytQ_-1">
          <mxGeometry relative="1" as="geometry" />
        </mxCell>
        <mxCell id="uOfySxA4SrgA6R2zytQ_-29" style="edgeStyle=orthogonalEdgeStyle;rounded=0;orthogonalLoop=1;jettySize=auto;html=1;entryX=0.5;entryY=0;entryDx=0;entryDy=0;endArrow=classicThin;endFill=1;startArrow=classicThin;startFill=1;flowAnimation=1;fontSize=11;exitX=0.462;exitY=0.981;exitDx=0;exitDy=0;exitPerimeter=0;" edge="1" parent="1" source="uOfySxA4SrgA6R2zytQ_-8" target="uOfySxA4SrgA6R2zytQ_-14">
          <mxGeometry relative="1" as="geometry">
            <mxPoint x="245" y="382" as="sourcePoint" />
            <Array as="points">
              <mxPoint x="390" y="311" />
              <mxPoint x="170" y="311" />
            </Array>
          </mxGeometry>
        </mxCell>
        <mxCell id="uOfySxA4SrgA6R2zytQ_-8" value="" style="image;aspect=fixed;html=1;points=[];align=center;fontSize=11;image=img/lib/azure2/general/Browser.svg;" vertex="1" parent="1">
          <mxGeometry x="360" y="130" width="65" height="52" as="geometry" />
        </mxCell>
        <mxCell id="uOfySxA4SrgA6R2zytQ_-59" style="edgeStyle=orthogonalEdgeStyle;rounded=0;orthogonalLoop=1;jettySize=auto;html=1;exitX=1;exitY=0.5;exitDx=0;exitDy=0;startArrow=classicThin;startFill=1;endArrow=classicThin;endFill=1;flowAnimation=1;" edge="1" parent="1" source="uOfySxA4SrgA6R2zytQ_-14">
          <mxGeometry relative="1" as="geometry">
            <mxPoint x="390" y="430" as="targetPoint" />
          </mxGeometry>
        </mxCell>
        <mxCell id="uOfySxA4SrgA6R2zytQ_-14" value="API Services" style="swimlane;whiteSpace=wrap;html=1;fontSize=11;" vertex="1" parent="1">
          <mxGeometry x="70" y="330" width="200" height="200" as="geometry" />
        </mxCell>
        <mxCell id="uOfySxA4SrgA6R2zytQ_-25" value="" style="swimlane;startSize=0;fontSize=11;" vertex="1" parent="uOfySxA4SrgA6R2zytQ_-14">
          <mxGeometry x="20" y="40" width="160" height="40" as="geometry" />
        </mxCell>
        <mxCell id="uOfySxA4SrgA6R2zytQ_-26" value="Login" style="text;html=1;align=center;verticalAlign=middle;resizable=0;points=[];autosize=1;strokeColor=none;fillColor=none;fontSize=11;" vertex="1" parent="uOfySxA4SrgA6R2zytQ_-25">
          <mxGeometry x="55" y="5" width="50" height="30" as="geometry" />
        </mxCell>
        <mxCell id="uOfySxA4SrgA6R2zytQ_-21" value="" style="swimlane;startSize=0;fontSize=11;" vertex="1" parent="uOfySxA4SrgA6R2zytQ_-14">
          <mxGeometry x="20" y="90" width="160" height="40" as="geometry" />
        </mxCell>
        <mxCell id="uOfySxA4SrgA6R2zytQ_-22" value="Explore Movies" style="text;html=1;align=center;verticalAlign=middle;resizable=0;points=[];autosize=1;strokeColor=none;fillColor=none;fontSize=11;" vertex="1" parent="uOfySxA4SrgA6R2zytQ_-21">
          <mxGeometry x="30" y="5" width="100" height="30" as="geometry" />
        </mxCell>
        <mxCell id="uOfySxA4SrgA6R2zytQ_-23" value="" style="swimlane;startSize=0;fontSize=11;" vertex="1" parent="uOfySxA4SrgA6R2zytQ_-14">
          <mxGeometry x="20" y="140" width="160" height="40" as="geometry" />
        </mxCell>
        <mxCell id="uOfySxA4SrgA6R2zytQ_-24" value="Streaming" style="text;html=1;align=center;verticalAlign=middle;resizable=0;points=[];autosize=1;strokeColor=none;fillColor=none;fontSize=11;" vertex="1" parent="uOfySxA4SrgA6R2zytQ_-23">
          <mxGeometry x="45" y="5" width="70" height="30" as="geometry" />
        </mxCell>
        <mxCell id="uOfySxA4SrgA6R2zytQ_-31" value="" style="swimlane;startSize=0;fontSize=11;" vertex="1" parent="1">
          <mxGeometry x="390" y="380" width="190" height="70" as="geometry" />
        </mxCell>
        <mxCell id="uOfySxA4SrgA6R2zytQ_-32" value="&lt;font style=&quot;font-size: 11px;&quot;&gt;Apache Spark&lt;/font&gt;" style="text;html=1;align=center;verticalAlign=middle;resizable=0;points=[];autosize=1;strokeColor=none;fillColor=none;fontSize=11;" vertex="1" parent="uOfySxA4SrgA6R2zytQ_-31">
          <mxGeometry x="50" y="20" width="90" height="30" as="geometry" />
        </mxCell>
        <mxCell id="uOfySxA4SrgA6R2zytQ_-34" value="" style="swimlane;startSize=0;fontSize=11;" vertex="1" parent="1">
          <mxGeometry x="490" y="485.41999999999996" width="90" height="70" as="geometry" />
        </mxCell>
        <mxCell id="uOfySxA4SrgA6R2zytQ_-50" value="&lt;span style=&quot;color: rgb(0, 0, 0); font-family: Helvetica; font-size: 11px; font-style: normal; font-variant-ligatures: normal; font-variant-caps: normal; font-weight: 400; letter-spacing: normal; orphans: 2; text-align: center; text-indent: 0px; text-transform: none; widows: 2; word-spacing: 0px; -webkit-text-stroke-width: 0px; white-space: nowrap; background-color: rgb(251, 251, 251); text-decoration-thickness: initial; text-decoration-style: initial; text-decoration-color: initial; float: none; display: inline !important;&quot;&gt;Data Analysis&lt;/span&gt;" style="text;whiteSpace=wrap;html=1;fontSize=11;" vertex="1" parent="uOfySxA4SrgA6R2zytQ_-34">
          <mxGeometry x="10" y="19.99999999999998" width="35" height="20.21" as="geometry" />
        </mxCell>
        <mxCell id="uOfySxA4SrgA6R2zytQ_-47" value="" style="html=1;verticalLabelPosition=bottom;align=center;labelBackgroundColor=#ffffff;verticalAlign=top;strokeWidth=2;strokeColor=#0080F0;shadow=0;dashed=0;shape=mxgraph.ios7.icons.data;fontSize=11;" vertex="1" parent="1">
          <mxGeometry x="741" y="400.65999999999997" width="24" height="29.099999999999998" as="geometry" />
        </mxCell>
        <mxCell id="uOfySxA4SrgA6R2zytQ_-45" value="" style="html=1;verticalLabelPosition=bottom;align=center;labelBackgroundColor=#ffffff;verticalAlign=top;strokeWidth=2;strokeColor=#0080F0;shadow=0;dashed=0;shape=mxgraph.ios7.icons.data;fontSize=11;" vertex="1" parent="1">
          <mxGeometry x="731" y="400.24" width="24" height="29.099999999999998" as="geometry" />
        </mxCell>
        <mxCell id="uOfySxA4SrgA6R2zytQ_-48" value="Hadoop Cluster" style="text;html=1;align=center;verticalAlign=middle;resizable=0;points=[];autosize=1;strokeColor=none;fillColor=none;fontSize=11;" vertex="1" parent="1">
          <mxGeometry x="693" y="425" width="100" height="30" as="geometry" />
        </mxCell>
        <mxCell id="uOfySxA4SrgA6R2zytQ_-52" style="edgeStyle=orthogonalEdgeStyle;rounded=0;orthogonalLoop=1;jettySize=auto;html=1;exitX=0.5;exitY=0;exitDx=0;exitDy=0;entryX=0.766;entryY=1.029;entryDx=0;entryDy=0;entryPerimeter=0;startArrow=classicThin;startFill=1;endArrow=none;endFill=0;" edge="1" parent="1" source="uOfySxA4SrgA6R2zytQ_-34" target="uOfySxA4SrgA6R2zytQ_-31">
          <mxGeometry relative="1" as="geometry" />
        </mxCell>
        <mxCell id="uOfySxA4SrgA6R2zytQ_-55" value="" style="swimlane;startSize=0;fontSize=11;" vertex="1" parent="1">
          <mxGeometry x="390" y="485.41999999999996" width="90" height="70" as="geometry" />
        </mxCell>
        <mxCell id="uOfySxA4SrgA6R2zytQ_-56" value="&lt;span style=&quot;color: rgb(0, 0, 0); font-family: Helvetica; font-size: 11px; font-style: normal; font-variant-ligatures: normal; font-variant-caps: normal; font-weight: 400; letter-spacing: normal; orphans: 2; text-align: center; text-indent: 0px; text-transform: none; widows: 2; word-spacing: 0px; -webkit-text-stroke-width: 0px; white-space: nowrap; background-color: rgb(251, 251, 251); text-decoration-thickness: initial; text-decoration-style: initial; text-decoration-color: initial; float: none; display: inline !important;&quot;&gt;MLlib&lt;/span&gt;" style="text;whiteSpace=wrap;html=1;fontSize=11;" vertex="1" parent="uOfySxA4SrgA6R2zytQ_-55">
          <mxGeometry x="27.5" y="19.99999999999998" width="35" height="20.21" as="geometry" />
        </mxCell>
        <mxCell id="uOfySxA4SrgA6R2zytQ_-57" style="edgeStyle=orthogonalEdgeStyle;rounded=0;orthogonalLoop=1;jettySize=auto;html=1;exitX=0.5;exitY=0;exitDx=0;exitDy=0;entryX=0.766;entryY=1.029;entryDx=0;entryDy=0;entryPerimeter=0;startArrow=classicThin;startFill=1;endArrow=none;endFill=0;" edge="1" parent="1" source="uOfySxA4SrgA6R2zytQ_-55">
          <mxGeometry relative="1" as="geometry">
            <mxPoint x="435.53999999999996" y="452.03" as="targetPoint" />
          </mxGeometry>
        </mxCell>
        <mxCell id="uOfySxA4SrgA6R2zytQ_-58" style="edgeStyle=orthogonalEdgeStyle;rounded=0;orthogonalLoop=1;jettySize=auto;html=1;exitX=1;exitY=0.5;exitDx=0;exitDy=0;endArrow=classicThin;endFill=1;startArrow=classicThin;startFill=1;" edge="1" parent="1" source="uOfySxA4SrgA6R2zytQ_-31">
          <mxGeometry relative="1" as="geometry">
            <mxPoint x="730" y="415" as="targetPoint" />
          </mxGeometry>
        </mxCell>
        <mxCell id="uOfySxA4SrgA6R2zytQ_-60" value="" style="swimlane;startSize=0;dashed=1;movable=1;resizable=1;rotatable=1;deletable=1;editable=1;locked=0;connectable=1;" vertex="1" parent="1">
          <mxGeometry x="30" y="290" width="770" height="300" as="geometry" />
        </mxCell>
        <mxCell id="uOfySxA4SrgA6R2zytQ_-62" value="&lt;font style=&quot;font-size: 11px;&quot;&gt;Google Cloud&lt;/font&gt;" style="text;html=1;align=center;verticalAlign=middle;resizable=0;points=[];autosize=1;strokeColor=none;fillColor=none;fontSize=11;" vertex="1" parent="1">
          <mxGeometry x="30" y="260" width="90" height="30" as="geometry" />
        </mxCell>
      </root>
    </mxGraphModel>
  </diagram>
</mxfile>
